# xmcd CD database file
#
# Track frame offsets:
#	150
#	13498
#	29783
#	47446
#	67137
#	84287
#	97534
#	109168
#	129357
#	141053
#	164362
#	182138
#	203963
#	224874
#	237467
#	250295
#	276741
#	289837
#	310401
#	323851
#
# Disc length: 4648 seconds
#
# Revision: 0
# Processed by: cddbd v1.5.2PL0 Copyright (c) Steve Scherf et al.
# Submitted via: CDex 1.51
#
DISCID=3c122614
DTITLE=Belvedere Broadcasters - Big Steps
DYEAR=2005
DGENRE=Jazz
TTITLE0=The Continental
TTITLE1=You're Driving me Crazy
TTITLE2=The Mooch
TTITLE3=I Would do Anything for You
TTITLE4=Sentimental Gentleman from Georgia
TTITLE5=The Blue Room
TTITLE6=I'm Gonna Charleston Back to Charleston
TTITLE7=Jalousie
TTITLE8=Do You Ever Think of Me
TTITLE9=Swingin' In A Hammock
TTITLE10=My Blackbirds are Bluebirds Now
TTITLE11=Rockin' Chair
TTITLE12=Siboney
TTITLE13=Anything Goes
TTITLE14=Henderson Stomp
TTITLE15=River Stay 'Way From My Door
TTITLE16=My Walking Stick
TTITLE17=Sweet Sue - Just You
TTITLE18=At The Codfish Ball
TTITLE19=Wrap Your Troubles in Dreams
EXTD=YEAR: 2005
EXTT0=
EXTT1=
EXTT2=
EXTT3=
EXTT4=
EXTT5=
EXTT6=
EXTT7=
EXTT8=
EXTT9=
EXTT10=
EXTT11=
EXTT12=
EXTT13=
EXTT14=
EXTT15=
EXTT16=
EXTT17=
EXTT18=
EXTT19=
PLAYORDER=
